<svg version="1.1" viewBox="0.0 0.0 100.57217847769029 282.8556430446194" fill="none" stroke="none" stroke-linecap="square" stroke-miterlimit="10" xmlns:xlink="http://www.w3.org/1999/xlink" xmlns="http://www.w3.org/2000/svg"><clipPath id="p.0"><path d="m0 0l100.57218 0l0 282.85565l-100.57218 0l0 -282.85565z" clip-rule="nonzero"/></clipPath><g clip-path="url(#p.0)"><path fill="#000000" fill-opacity="0.0" d="m0 0l100.57218 0l0 282.85565l-100.57218 0z" fill-rule="evenodd"/><path fill="#b6d7a8" d="m0.992126 53.750656l-0.992126 228.88188l100.073494 0l-1.9816284 -227.88976z" fill-rule="evenodd"/><path stroke="#595959" stroke-width="1.0" stroke-linejoin="round" stroke-linecap="butt" d="m0.992126 53.750656l-0.992126 228.88188l100.073494 0l-1.9816284 -227.88976z" fill-rule="evenodd"/><path fill="#ffff00" d="m32.698162 17.338583l0 0c0 -9.575835 7.7627487 -17.338583 17.338585 -17.338583l0 0c4.5984764 0 9.008614 1.8267382 12.260227 5.0783534c3.2516174 3.251615 5.078354 7.6617513 5.078354 12.260229l0 0c0 9.575834 -7.7627487 17.338583 -17.338581 17.338583l0 0c-9.575836 0 -17.338585 -7.7627487 -17.338585 -17.338583z" fill-rule="evenodd"/><path stroke="#595959" stroke-width="1.0" stroke-linejoin="round" stroke-linecap="butt" d="m32.698162 17.338583l0 0c0 -9.575835 7.7627487 -17.338583 17.338585 -17.338583l0 0c4.5984764 0 9.008614 1.8267382 12.260227 5.0783534c3.2516174 3.251615 5.078354 7.6617513 5.078354 12.260229l0 0c0 9.575834 -7.7627487 17.338583 -17.338581 17.338583l0 0c-9.575836 0 -17.338585 -7.7627487 -17.338585 -17.338583z" fill-rule="evenodd"/><path fill="#ff0000" d="m2.9737532 52.761154l0.992126 -38.643044l52.511814 -6.9343834l5.9448814 45.577427z" fill-rule="evenodd"/><path stroke="#595959" stroke-width="1.0" stroke-linejoin="round" stroke-linecap="butt" d="m2.9737532 52.761154l0.992126 -38.643044l52.511814 -6.9343834l5.9448814 45.577427z" fill-rule="evenodd"/><path fill="#4a86e8" d="m62.437008 33.934383l35.17323 -1.9816284l0.99212646 10.157482l-6.687668 0.24671936l0.98950195 10.404198l-27.496063 0z" fill-rule="evenodd"/><path stroke="#595959" stroke-width="1.0" stroke-linejoin="round" stroke-linecap="butt" d="m62.437008 33.934383l35.17323 -1.9816284l0.99212646 10.157482l-6.687668 0.24671936l0.98950195 10.404198l-27.496063 0z" fill-rule="evenodd"/><path fill="#cfe2f3" d="m80.76792 90.8414l2.4724426 -0.30708313l-6.0254517 -48.032253l4.9448853 -0.6141739l6.025444 48.032253l2.4724426 -0.30709076l-4.3246613 5.558304z" fill-rule="evenodd"/><path stroke="#000000" stroke-width="1.0" stroke-linejoin="round" stroke-linecap="butt" d="m80.76792 90.8414l2.4724426 -0.30708313l-6.0254517 -48.032253l4.9448853 -0.6141739l6.025444 48.032253l2.4724426 -0.30709076l-4.3246613 5.558304z" fill-rule="evenodd"/><path fill="#741b47" d="m61.851883 29.733913l2.4724426 -0.30708694l-1.7074776 -13.54444l4.9448814 -0.61417294l1.7074738 13.544441l2.4724426 -0.30708694l-4.3216476 5.5579205z" fill-rule="evenodd"/><path stroke="#000000" stroke-width="1.0" stroke-linejoin="round" stroke-linecap="butt" d="m61.851883 29.733913l2.4724426 -0.30708694l-1.7074776 -13.54444l4.9448814 -0.61417294l1.7074738 13.544441l2.4724426 -0.30708694l-4.3216476 5.5579205z" fill-rule="evenodd"/><path fill="#741b47" d="m40.279076 8.427653l-2.464569 0.34645748l1.9393768 13.529457l-4.9291344 0.69291496l-1.9393768 -13.529459l-2.4645653 0.34645653l4.2228394 -5.6201477z" fill-rule="evenodd"/><path stroke="#000000" stroke-width="1.0" stroke-linejoin="round" stroke-linecap="butt" d="m40.279076 8.427653l-2.464569 0.34645748l1.9393768 13.529457l-4.9291344 0.69291496l-1.9393768 -13.529459l-2.4645653 0.34645653l4.2228394 -5.6201477z" fill-rule="evenodd"/><path fill="#741b47" d="m57.510853 10.615099l-0.37007904 -2.4645672l-13.49876 2.0767326l-0.7401581 -4.929134l13.49876 -2.0767326l-0.37007904 -2.464567l5.6665955 4.171221z" fill-rule="evenodd"/><path stroke="#000000" stroke-width="1.0" stroke-linejoin="round" stroke-linecap="butt" d="m57.510853 10.615099l-0.37007904 -2.4645672l-13.49876 2.0767326l-0.7401581 -4.929134l13.49876 -2.0767326l-0.37007904 -2.464567l5.6665955 4.171221z" fill-rule="evenodd"/><path fill="#741b47" d="m41.517258 28.884636l0.3385849 2.4724426l13.51498 -1.914238l0.677166 4.9448814l-13.51498 1.914238l0.3385811 2.4724388l-5.6188736 -4.2449455z" fill-rule="evenodd"/><path stroke="#000000" stroke-width="1.0" stroke-linejoin="round" stroke-linecap="butt" d="m41.517258 28.884636l0.3385849 2.4724426l13.51498 -1.914238l0.677166 4.9448814l-13.51498 1.914238l0.3385811 2.4724388l-5.6188736 -4.2449455z" fill-rule="evenodd"/></g></svg>