<svg version="1.1" viewBox="0.0 0.0 100.57217847769029 282.8556430446194" fill="none" stroke="none" stroke-linecap="square" stroke-miterlimit="10" xmlns:xlink="http://www.w3.org/1999/xlink" xmlns="http://www.w3.org/2000/svg"><clipPath id="p.0"><path d="m0 0l100.57218 0l0 282.85565l-100.57218 0l0 -282.85565z" clip-rule="nonzero"/></clipPath><g clip-path="url(#p.0)"><path fill="#000000" fill-opacity="0.0" d="m0 0l100.57218 0l0 282.85565l-100.57218 0z" fill-rule="evenodd"/><path fill="#b6d7a8" d="m0.992126 53.750656l-0.992126 228.88188l100.073494 0l-1.9816284 -227.88976z" fill-rule="evenodd"/><path stroke="#595959" stroke-width="1.0" stroke-linejoin="round" stroke-linecap="butt" d="m0.992126 53.750656l-0.992126 228.88188l100.073494 0l-1.9816284 -227.88976z" fill-rule="evenodd"/><path fill="#ffff00" d="m32.698162 17.338583l0 0c0 -9.575835 7.7627487 -17.338583 17.338585 -17.338583l0 0c4.5984764 0 9.008614 1.8267382 12.260227 5.0783534c3.2516174 3.251615 5.078354 7.6617513 5.078354 12.260229l0 0c0 9.575834 -7.7627487 17.338583 -17.338581 17.338583l0 0c-9.575836 0 -17.338585 -7.7627487 -17.338585 -17.338583z" fill-rule="evenodd"/><path stroke="#595959" stroke-width="1.0" stroke-linejoin="round" stroke-linecap="butt" d="m32.698162 17.338583l0 0c0 -9.575835 7.7627487 -17.338583 17.338585 -17.338583l0 0c4.5984764 0 9.008614 1.8267382 12.260227 5.0783534c3.2516174 3.251615 5.078354 7.6617513 5.078354 12.260229l0 0c0 9.575834 -7.7627487 17.338583 -17.338581 17.338583l0 0c-9.575836 0 -17.338585 -7.7627487 -17.338585 -17.338583z" fill-rule="evenodd"/><path fill="#ff0000" d="m2.9737532 52.761154l0.992126 -38.643044l52.511814 -6.9343834l5.9448814 45.577427z" fill-rule="evenodd"/><path stroke="#595959" stroke-width="1.0" stroke-linejoin="round" stroke-linecap="butt" d="m2.9737532 52.761154l0.992126 -38.643044l52.511814 -6.9343834l5.9448814 45.577427z" fill-rule="evenodd"/><path fill="#4a86e8" d="m62.422573 33.934383l35.17323 -1.9816284l0.99212646 10.157482l-6.687668 0.24671936l0.98950195 10.404198l-27.496063 0z" fill-rule="evenodd"/><path stroke="#595959" stroke-width="1.0" stroke-linejoin="round" stroke-linecap="butt" d="m62.422573 33.934383l35.17323 -1.9816284l0.99212646 10.157482l-6.687668 0.24671936l0.98950195 10.404198l-27.496063 0z" fill-rule="evenodd"/></g></svg>